<?xml version="1.0" encoding="UTF-8"?>
<svg id="Layer_2" data-name="Layer 2" xmlns="http://www.w3.org/2000/svg" viewBox="0 0 165.8 28.5">
  <defs>
    <style>
      .cls-1 {
        fill: #fff;
      }

      .cls-2 {
        fill: #ffcf00;
      }
    </style>
  </defs>
  <g id="Layer_1-2" data-name="Layer 1">
    <polygon class="cls-2" points="33.6 7.4 32 18.2 35.4 18.2 33.7 7.4 33.6 7.4"/>
    <path class="cls-2" d="M0,0v28.5h64.7V0H0ZM17,26.1c0,.5-.2.8-.5.8h-1.8c-.3,0-.5-.3-.5-.8V8.4h0l-2.3,12.5c0,.5-.3.7-.6.7h-1.9c-.3,0-.5-.2-.6-.7l-2.3-12.6h0v18.4c0,.1-.2.2-.4.2h-1.8c-.3,0-.5-.3-.5-.8V3.6c0-.5.2-.8.5-.8h3.3c.2,0,.4.2.4.5l2.4,13.2h.1l2.4-13.2c0-.3.2-.5.4-.5h3.3c.3,0,.5.3.5.8v22.5h-.1ZM39.1,26.9h-2.2c-.2,0-.3,0-.3-.2,0-.1-.1-.3-.1-.6l-.6-4.1h-4.4l-.6,4.1c0,.3,0,.5-.1.6,0,.1-.2.2-.3.2h-2.2c-.3,0-.4-.3-.3-.8l3.5-22.5c.1-.5.3-.8.7-.8h3c.4,0,.6.3.7.8l3.5,22.5c0,.5,0,.8-.3.8ZM60,10.7c0,.5-.2.8-.5.8h-1.9c-.3,0-.5-.3-.5-.8v-1.5c0-.8-.1-1.4-.3-1.7s-.5-.5-1-.5h-1.5c-.5,0-.8.2-1,.5s-.3.9-.3,1.7v11.4c0,.8.1,1.4.3,1.7.2.3.5.5,1,.5h1.5c.5,0,.8-.2,1-.5s.3-.9.3-1.7v-1.5c0-.5.2-.8.5-.8h1.9c.3,0,.5.3.5.8v1.8c0,1.9-.3,3.4-1,4.5-.7,1.1-1.6,1.6-2.7,1.6h-2.4c-1.2,0-2.1-.5-2.7-1.6-.6-1-1-2.6-1-4.5v-11.9c0-2,.3-3.5,1-4.5.6-1,1.6-1.6,2.7-1.6h2.4c1.2,0,2.1.5,2.7,1.6.7,1.1,1,2.6,1,4.5v1.8-.1Z"/>
    <g>
      <path class="cls-1" d="M71.3,26.2h-1.3c-.6,0-1.1-.3-1.5-.8-.3-.6-.5-1.4-.5-2.4v-6.3c0-1,.2-1.8.5-2.4s.8-.8,1.5-.8h1.3c.6,0,1.1.3,1.4.8.3.6.5,1.4.5,2.4v.9c0,.3,0,.4-.3.4h-1c-.2,0-.2-.1-.2-.4v-.8c0-.4,0-.7-.2-.9-.1-.2-.3-.3-.5-.3h-.8c-.2,0-.4,0-.5.3-.1.2-.2.5-.2.9v6c0,.4,0,.7.2.9.1.2.3.3.5.3h.8c.3,0,.4,0,.5-.3.1-.2.2-.5.2-.9v-.8c0-.3,0-.4.2-.4h1c.2,0,.3.1.3.4v.9c0,1-.2,1.8-.5,2.4-.3.6-.8.8-1.4.8v.1Z"/>
      <path class="cls-1" d="M82.5,26.2h-1.3c-.6,0-1.1-.3-1.5-.8-.3-.6-.5-1.4-.5-2.4v-6.3c0-1,.2-1.8.5-2.4s.8-.8,1.5-.8h1.3c.6,0,1.1.3,1.5.8.3.6.5,1.4.5,2.4v6.3c0,1-.2,1.8-.5,2.4-.3.6-.8.8-1.5.8ZM81.4,24h.8c.3,0,.4,0,.5-.3.1-.2.2-.5.2-.9v-6c0-.4,0-.7-.2-.9-.1-.2-.3-.3-.5-.3h-.8c-.3,0-.4,0-.5.3-.1.2-.2.5-.2.9v6c0,.4,0,.7.2.9.1.2.3.3.5.3Z"/>
      <path class="cls-1" d="M94.8,26.2h-3.9c-.2,0-.2-.1-.2-.4v-11.9c0-.3,0-.4.2-.4h1c.2,0,.2.1.2.4v9.9c0,.1,0,.2.1.2h2.5c.2,0,.2.1.2.4v1.3c0,.3,0,.4-.2.4l.1.1Z"/>
      <path class="cls-1" d="M104.9,26.2h-3.9c-.2,0-.2-.1-.2-.4v-11.9c0-.3,0-.4.2-.4h1c.2,0,.2.1.2.4v9.9c0,.1,0,.2.1.2h2.5c.2,0,.2.1.2.4v1.3c0,.3,0,.4-.2.4l.1.1Z"/>
      <path class="cls-1" d="M115,26.2h-3.9c-.2,0-.2-.1-.2-.4v-11.9c0-.3,0-.4.2-.4h3.9c.2,0,.2.1.2.4v1.3c0,.3,0,.4-.2.4h-2.5s-.1,0-.1.2v2.6c0,.1,0,.2.1.2h2c.2,0,.2.1.2.4v1.3c0,.3,0,.4-.2.4h-2s-.1,0-.1.2v2.8c0,.1,0,.2.1.2h2.5c.2,0,.2.1.2.4v1.3c0,.3,0,.4-.2.4v.2Z"/>
      <path class="cls-1" d="M124.5,26.2h-1.3c-.6,0-1.1-.3-1.5-.8-.3-.6-.5-1.4-.5-2.4v-6.3c0-1,.2-1.8.5-2.4s.8-.8,1.5-.8h1.3c.6,0,1.1.3,1.4.8.3.6.5,1.4.5,2.4v.9c0,.3,0,.4-.3.4h-1c-.2,0-.2-.1-.2-.4v-.8c0-.4,0-.7-.2-.9-.1-.2-.3-.3-.5-.3h-.8c-.2,0-.4,0-.5.3-.1.2-.2.5-.2.9v6c0,.4,0,.7.2.9.1.2.3.3.5.3h.8c.3,0,.4,0,.5-.3.1-.2.2-.5.2-.9v-.8c0-.3,0-.4.2-.4h1c.2,0,.3.1.3.4v.9c0,1-.2,1.8-.5,2.4-.3.6-.8.8-1.4.8v.1Z"/>
      <path class="cls-1" d="M134.9,26.2h-1c-.2,0-.3-.1-.3-.4v-9.9c0-.1,0-.2-.1-.2h-1.4c-.2,0-.2-.1-.2-.4v-1.3c0-.3,0-.4.2-.4h4.5c.2,0,.2.1.2.4v1.3c0,.3,0,.4-.2.4h-1.4s-.1,0-.1.2v9.9c0,.3,0,.4-.2.4Z"/>
      <path class="cls-1" d="M144.1,13.8v11.9c0,.3,0,.4-.2.4h-1c-.2,0-.2-.1-.2-.4v-11.9c0-.3,0-.4.2-.4h1c.2,0,.2.1.2.4Z"/>
      <path class="cls-1" d="M153.6,26.2h-1.6c-.2,0-.3-.1-.3-.4l-1.8-11.9c0-.3,0-.5.2-.5h1.1c.2,0,.3.1.3.4l1.2,9.7h0l1.2-9.7c0-.3.1-.4.3-.4h1.1c.2,0,.3.2.2.5l-1.8,11.9c0,.3-.1.4-.3.4h.2Z"/>
      <path class="cls-1" d="M165.6,26.2h-3.9c-.2,0-.2-.1-.2-.4v-11.9c0-.3,0-.4.2-.4h3.9c.2,0,.2.1.2.4v1.3c0,.3,0,.4-.2.4h-2.5s-.1,0-.1.2v2.6c0,.1,0,.2.1.2h2c.2,0,.2.1.2.4v1.3c0,.3,0,.4-.2.4h-2s-.1,0-.1.2v2.8c0,.1,0,.2.1.2h2.5c.2,0,.2.1.2.4v1.3c0,.3,0,.4-.2.4v.2Z"/>
    </g>
    <g>
      <path class="cls-1" d="M73.9,6.7v-2.8h0c-.2.9-.5,1.8-.7,2.6l-.8,2.6h-1.2l-.7-2.6c-.2-.8-.4-1.7-.6-2.6h0c0,.9,0,1.9-.1,2.8v2.5h-1.5l.4-6.7h2l.7,2.2c.2.8.4,1.6.6,2.4h0c.2-.8.4-1.7.6-2.4l.7-2.2h2l.4,6.7h-1.5v-2.6l-.3.1Z"/>
      <path class="cls-1" d="M80.2,2.6v6.7h-1.5V2.6h1.5Z"/>
      <path class="cls-1" d="M83.5,2.7c.6,0,1.3-.1,2-.1,1.3,0,2.1.2,2.7.7.7.5,1.1,1.3,1.1,2.5s-.5,2.2-1.1,2.7c-.7.6-1.8.9-3.1.9h-1.7V2.8l.1-.1ZM85,8.2h.5c1.4,0,2.3-.7,2.3-2.3,0-1.4-.8-2.1-2.1-2.1s-.6,0-.7,0c0,0,0,4.4,0,4.4Z"/>
      <path class="cls-1" d="M97.3,9.1c-.3.1-.9.3-1.7.3-2.3,0-3.5-1.4-3.5-3.3s1.6-3.6,3.7-3.6,1.4.2,1.6.3l-.3,1.2c-.3-.1-.7-.2-1.3-.2-1.2,0-2.1.7-2.1,2.2s.8,2.2,2.1,2.2,1,0,1.3-.2l.2,1.2v-.1Z"/>
      <path class="cls-1" d="M101.8,2.6v6.7h-1.5V2.6h1.5Z"/>
      <path class="cls-1" d="M106.4,3.9h-1.8v-1.3h5.1v1.3h-1.8v5.4h-1.5s0-5.4,0-5.4Z"/>
      <path class="cls-1" d="M114.1,2.6v6.7h-1.5V2.6h1.5Z"/>
      <path class="cls-1" d="M121.3,6.5h-2.5v1.6h2.8v1.2h-4.3V2.6h4.1v1.2h-2.6v1.4h2.5v1.3Z"/>
      <path class="cls-1" d="M124.7,7.7c.4.2,1,.4,1.7.4s1.1-.3,1.1-.7-.3-.7-1.1-.9c-1.1-.4-1.8-1-1.8-2s1-2,2.5-2,1.3.2,1.7.3l-.3,1.2c-.3-.1-.7-.3-1.4-.3s-1,.3-1,.6.4.6,1.2.9c1.2.4,1.7,1.1,1.7,2s-.9,2.1-2.7,2.1-1.5-.2-1.9-.4l.3-1.3v.1Z"/>
      <path class="cls-1" d="M137.5,7.6l-.5,1.7h-1.6l2-6.7h2l2.1,6.7h-1.6l-.5-1.7h-1.9ZM139.2,6.5l-.4-1.4c-.1-.4-.2-.9-.3-1.3h0c0,.4-.2.9-.3,1.3l-.4,1.4h1.5-.1Z"/>
      <path class="cls-1" d="M144.5,2.7c.5,0,1.2-.1,2-.1s1.7.1,2.2.5c.4.3.6.8.6,1.4s-.6,1.4-1.2,1.6h0c.5.2.7.7.9,1.3.2.8.4,1.6.5,1.9h-1.5c-.1-.2-.3-.7-.5-1.6-.2-.8-.5-1.1-1.1-1.1h-.5v2.6h-1.5V2.6l.1.1ZM146,5.6h.6c.8,0,1.2-.4,1.2-1s-.4-.9-1.1-.9h-.7v1.9Z"/>
      <path class="cls-1" d="M153.7,3.9h-1.8v-1.3h5.1v1.3h-1.8v5.4h-1.5V3.9Z"/>
      <path class="cls-1" d="M159.8,7.7c.4.2,1,.4,1.7.4s1.1-.3,1.1-.7-.3-.7-1.1-.9c-1.1-.4-1.8-1-1.8-2s1-2,2.5-2,1.3.2,1.7.3l-.3,1.2c-.3-.1-.7-.3-1.4-.3s-1,.3-1,.6.4.6,1.2.9c1.2.4,1.7,1.1,1.7,2s-.9,2.1-2.7,2.1-1.5-.2-1.9-.4l.3-1.3v.1Z"/>
    </g>
  </g>
</svg>