<?xml version="1.0" encoding="UTF-8"?>
<svg id="Layer_1" xmlns="http://www.w3.org/2000/svg" version="1.1" viewBox="0 0 800 800">
  <!-- Generator: Adobe Illustrator 29.0.0, SVG Export Plug-In . SVG Version: 2.1.0 Build 186)  -->
  <defs>
    <style>
      .st0 {
        stroke: #ffcf00;
      }

      .st0, .st1 {
        fill: none;
        stroke-linecap: round;
        stroke-linejoin: round;
        stroke-width: 48px;
      }

      .st1 {
        stroke: #fff;
      }
    </style>
  </defs>
  <path class="st1" d="M624,289c0-29.7-5.9-59.2-17.4-86.6-11.5-27.4-28.3-52.3-49.5-73.1-21.2-20.9-46.4-37.3-74-48.3-27.6-11-57.2-16.4-86.9-15.9-57.1,1.7-111.4,24.8-152.2,64.8-40.8,40-65,93.8-67.9,150.9-1.4,38.1,7,75.8,24.3,109.8,17.3,33.9,43,62.9,74.6,84.1,8.9,5.8,16.2,13.7,21.3,23,5.1,9.3,7.8,19.8,7.8,30.4v49h192v-49c0-10.6,2.6-21,7.7-30.4,5-9.3,12.3-17.3,21.1-23.1,30.5-20.4,55.5-48.1,72.8-80.4,17.3-32.4,26.4-68.5,26.4-105.2Z"/>
  <path class="st0" d="M496,673.3c-27.7,20.8-61.4,32-96,32s-68.3-11.2-96-32"/>
  <path class="st0" d="M399.7,180.5l-53.1,89c-2.4,3.9-3.7,8.4-3.8,13,0,4.6,1.1,9.1,3.3,13.1,2.3,4,5.5,7.3,9.5,9.6,4,2.3,8.5,3.5,13.1,3.4h64c4.5,0,9,1.2,12.9,3.4,3.9,2.3,7.2,5.5,9.4,9.5,2.2,3.9,3.4,8.4,3.4,12.9,0,4.5-1.3,9-3.6,12.9l-53.8,89.3"/>
</svg>