<?xml version="1.0" encoding="UTF-8"?>
<svg id="giving-heart" xmlns="http://www.w3.org/2000/svg" version="1.1" viewBox="0 0 66 66">
  <!-- Generator: Adobe Illustrator 29.0.0, SVG Export Plug-In . SVG Version: 2.1.0 Build 186)  -->
  <defs>
    <style>
      .st0 {
        fill: #fff;
      }

      .st1, .st2 {
        fill: #ffcf00;
      }

      .st2 {
        isolation: isolate;
        opacity: .2;
      }
    </style>
  </defs>
  <path class="st0" d="M11,8.5c-2-.5-3.6-2.1-4.2-4.2h0c-.5,2-2.1,3.6-4.2,4.2h0c2.1.5,3.6,2.1,4.2,4.2h0c.5-2,2.1-3.6,4.2-4.2h0Z"/>
  <circle class="st0" cx="20.3" cy="18.8" r="1.8"/>
  <circle class="st0" cx="8.9" cy="17" r="1.2"/>
  <circle class="st0" cx="16.7" cy="2.3" r="1"/>
  <path class="st2" d="M20.8,49.1c-.5,0-1-.5-1-1v-8c0-.5.5-1,1-1s1,.5,1,1v8c0,.5-.5,1-1,1Z"/>
  <circle class="st2" cx="20.8" cy="51" r="1"/>
  <path class="st0" d="M56.3,41.5c-.8-1.1-2.1-1.8-3.5-1.8s-1.4.2-2.1.5l-7,3.7c0-2-1.7-3.6-3.6-3.6h-6.1c-.5,0-.9-.2-1.3-.5-.7-.7-1.7-1.1-2.7-1.1h-4.8v-1.8c0-.5-.5-1-1-1h-9.7c-.6,0-1,.5-1,1v1.8h-3.4c-.6,0-1,.5-1,1s.4,1,1,1h3.4v12h-3.4c-.6,0-1,.5-1,1s.4,1,1,1h3.4v1.6c0,.5.4,1,1,1h9.7c.5,0,1-.5,1-1v-.9l3.9.5h0l6.6.8h.8c.7,0,1.5,0,2.1-.4l8.2-3.1c.5-.2.9-.4,1.3-.7l7.1-5c1.2-.8,1.8-2.2,1.8-3.6s-.3-1.8-.8-2.6v.2ZM23.3,55.4h-7.7v-17.5h7.7v17.5ZM54.2,46l-7.1,5c-.3.2-.6.4-.9.5l-8.2,3.1c-.6.2-1.3.3-2,.2l-6.6-.8h0l-4.1-.5v-12.7h4.8c.5,0,.9.2,1.3.5.7.7,1.7,1.1,2.7,1.1h6.1c.9,0,1.6.7,1.6,1.6s-.7,1.6-1.6,1.6h-9.3c-.5,0-1,.5-1,1s.5,1,1,1h9.3c.7,0,1.3-.2,1.9-.5h0l9.7-5.1c1-.5,2.3-.2,3,.7.3.4.5.9.5,1.4,0,.8-.4,1.5-1,1.9h0Z"/>
  <path class="st1" d="M39.3,38.8h-.3c-4.1-1.2-13.7-8.5-13.7-15.5s1.9-6.1,4.8-7.4h0c2.1-.9,4.6-.9,6.6,0h0c1,.4,1.9,1.1,2.6,1.9,1.5-1.7,3.7-2.6,6-2.6,4.4,0,8,3.6,8,8.1,0,7-9.6,14.4-13.7,15.5h-.3ZM30.9,17.7h0c-2.2,1-3.6,3.1-3.6,5.5,0,5.6,8.2,12.2,12,13.5,3.8-1.3,12-7.9,12-13.5s-2.7-6-6-6-4,1-5.1,2.8c-.4.6-1.3.6-1.7,0-.6-1-1.5-1.8-2.6-2.3h0c-1.6-.7-3.4-.7-5,0Z"/>
  <path class="st0" d="M32.6,14.2c-.3,0-.5-.1-.7-.3l-1.9-1.9c-.4-.4-.4-1,0-1.4s1-.4,1.4,0l1.9,1.9c.4.4.4,1,0,1.4s-.4.3-.7.3Z"/>
  <path class="st0" d="M46,14.2c-.3,0-.5-.1-.7-.3-.4-.4-.4-1,0-1.4l1.9-1.9c.4-.4,1-.4,1.4,0s.4,1,0,1.4l-1.9,1.9c-.2.2-.5.3-.7.3Z"/>
  <path class="st0" d="M39.3,12.6c-.5,0-1-.4-1-1v-2.6c0-.6.5-1,1-1s1,.4,1,1v2.7c0,.5-.4,1-1,1h0Z"/>
</svg>